<svg xmlns="http://www.w3.org/2000/svg" xmlns:xlink="http://www.w3.org/1999/xlink" id="Cuentos_indigenas_Logo" viewBox="0 0 667 511" version="1"><defs id="defs44"><radialGradient gradientTransform="matrix(.0989 .0037 -.0045 .1943 442 123)" r="26" cy="740" cx="381" gradientUnits="userSpaceOnUse" xlink:href="#lg" id="rg3"/><radialGradient gradientTransform="matrix(-.17642 -.07067 .06515 -.16392 431 378)" r="26" cy="550" cx="652" gradientUnits="userSpaceOnUse" xlink:href="#lg" id="rg2"/><radialGradient gradientTransform="matrix(.18574 .04718 -.04532 .18635 234 199)" r="26" cy="104" cx="842" gradientUnits="userSpaceOnUse" xlink:href="#lg" id="rg1"/><clipPath id="band"><circle r="735" id="circle53"/></clipPath><clipPath id="gcut"><path d="M-31 0v-70h63V0zM0-47v12h32v-12z" id="path11"/></clipPath><filter id="filter1795" x="0" width="1" y="0" height="1" color-interpolation-filters="sRGB"><feGaussianBlur stdDeviation="28" id="feGaussianBlur1797"/></filter><filter id="filter1795-8" x="0" width="1" y="0" height="1" color-interpolation-filters="sRGB"><feGaussianBlur stdDeviation="28" id="feGaussianBlur1797-3"/></filter><linearGradient id="lg"><stop id="stop3038" offset="0" stop-color="#fff"/><stop id="stop3040" offset="1" stop-color="#f15770"/></linearGradient><path transform="rotate(30)" stroke-miterlimit="10" d="M-1 55h2v-93c2-2 2-5 2-8 0-2 0-10-3-19-3 9-3 17-3 19 0 3 0 6 2 8z" id="spearshape"/></defs><style id="style3">.st0{fill:#337fbe}.st1{fill:#3bb54a}</style><g id="g3036" transform="translate(-43 -52)"><g id="g3247"><g id="Globe"><circle class="st0" cx="376" cy="305" r="222" id="circle8" fill="#337fbe"/><g id="g10"><path class="st1" d="M176 212c3 0 5 4 8 6l9 3 3 2c1 3-3 5-2 7l2 3v2l3 3v2l1 2 8 4 2 1c6 5 0 16-1 21-2 12 3 18 9 26l4 6c6 8 15 15 22 22l2 3 1 4 7 6 18 8c7 4 13 2 19 5 10 3 21 7 29 14 3 3 3 8 3 12l-1 3-1 2-3 2-1 1c-1 1-2 3-1 4l-2 3-1 7 1 5 2 2 1 2c0 3 2 6 4 7l5 2 2 2c3 2 6 3 8 6 3 6-6 18-6 25v8l-5 15c-2 4-5 10-5 15l7 7 1 3-1 2-3 16 1 2 1 2c3 3 8 5 13 6l1-11a26 26 0 016-14h1c2 0 3-1 4-3l2-5c4-9 12-10 17-17l6-8 8-10c2-3 3-7 6-9l4-3c7-3 19-15 15-23l-2-3 2-4c2-4 18-21 8-26l-5-1c-5-2-8-7-12-9-6-2-13 0-17-6l-2-4-4-5-6-6-2-1c-3-2-9 1-14 0l-3 2c-3 0-6 0-7-2l-2-4c-2-3-8-5-9-8-1-1-3 0-4 1l-1 3-6 8c-3-1-5-3-6-5l-1-3-2-2-5-2c-2-1-5-3-5-6v-5l1-3v-2h-3l-3 3-4 1-3 2c-3 1-8-1-11-2-2 0-4-1-5-3-2-4-2-13 1-16 4-4 3-8 11-8l10 2h10l2 4 2 4 1 2v3c0 4 0 7 2 9l2-2 2-1v-2l-2-13v-3l1-2 5-11c1-3 2-7 4-8 0-2 1-3 3-3l4-1 3-2a68 68 0 0114-9l5-2c1-2 0-4 2-5l2-2-1-1-5-2h-3c-2 0-4-2-5-4l-1-1 1-1 4-7 1-1 4-1 4 2h7l3 2h3l2-4c-1-3 0-8 3-11l1-1v-2c0-2-1-4-3-5s-5 1-8 1l-10-2-1-1-1-1c-1-2-3-13-6-14l-8-1c-1-1-2 0-2 1v1l-2 2-3-2-9-14-1-1h-2c-2 0-5 0-5 2l-2 2c0 6 4 14 4 20v3l-1 1c-3 2-5 12-8 13h-2l-4-3-3-4c-1-2-4-3-6-4-3-2-12-7-13-11-2-4 2-6 3-10s1-7 6-8c7-3 15-7 22-8 3 0 5 0 6-2 1-3 0-5-2-7l-8-10c-1-1-3-10-6-7l-1 1c-2 3-5 4-8 3-2 0-2-2-2-3v-12c0-2 0-4-2-5l-2 1c-2 1-5 2-6 4l-3 2h-9l-1-1-8-14-2-1c-2 0-1 5-3 6-3 1-7 4-10 2l-5-3c-4-3-6-1-8 2l-1 1 1 2 7 8c3 3-4 6 3 7l3 4 2 4 1 1c3 5-13 3-14 2-8-4-19-11-27-11-15 15-32 47-33 52" id="path12" fill="#3bb54a"/><path class="st1" d="M332 323h-5c0 2 2 3 3 4l2 3 5 1 6-1h3l3-1 2-2-1-1-5-1h-2l-4-4h-5l-3 2" id="path14" fill="#3bb54a"/><path class="st1" d="M591 354c0-3 1-8-2-11l-2-3c-6-9-1-20-15-25-7-2-14-2-21-1l-6-1c-6-3-4-12-8-18s-12-5-20-4l-26 3-7 2c-5 2-8 7-10 12-8 19-17 41-8 59 3 5 8 10 13 8l8-7c5-4 12-3 17 1l16 10c4 2 9 3 11 7l1 7c0 9 0 19-4 27-2 4-5 9-3 13l4 4c7 5 7 15 6 24 0-5 15-17 18-21a219 219 0 0039-80" id="path16" fill="#3bb54a"/><path class="st1" d="M596 335c-5-6-5-14-9-19-1-2-3-3-3-5l1-5c1-5 2-11-2-15-4-5-13-5-17-10l-2-2c-2-1-4 0-5 1-4 2-9 2-13 1v-7l-7-2c-3 1-5 3-8 3l-4-1-9 1-6 3c-2 1-4 3-4 5-2 0-5 1-6 3l-6 1c-4 1-10 2-12-1l-3-5-2-9c-1-3-2-7 1-8l4-1c3 0 5-2 6-5h2c1-5-4-11-1-15l6-3c1-1 3-3 5-3h5l4-3c3-1 5 0 7 2l6 5h7l2-1 1-2c0-4 0-8-3-10l-3-3-3-3-2-4c1-2 3-2 4-2h5l1-3h9l7-2c3 1 4 4 5 7l2 7 3 2c2 0 2-3 2-5 1 1 3-1 4-3 2-6 2-13-1-19-3-5-8-9-8-15-4 4-6 8-8 13 0 3-1 6-3 7l-4 2-19 4c-2 0-5 0-7-2s-1-7 1-9l6-8 2-4c2-2 5-2 8-3 3-2 4-6 4-9 1-3 1-7 3-10 1-2 3-4 5-3l5 2c35 43 57 101 47 170" id="path18" fill="#3bb54a"/><path class="st1" d="M493 212l-3 4 1 5-1 4-6 9c-2 1-4 3-4 5v1l2 1 5-1 7-4 3-1c5-1 8-7 6-11l-4-8c0-2 0-4-2-5l-2-2-2 1" id="path20" fill="#3bb54a"/><path class="st1" d="M458 177c-2 0-4 3-6 5s-4 4-7 3l11 14 2 2h10c4-2 5-6 7-9l5-3 2-5-1-8c-2-2-7-2-10-2l-6 1c-3 0-6 1-8 3" id="path22" fill="#3bb54a"/><path class="st1" d="M378 140c3 15 7 28 13 41l2 7c4 11 15 19 26 19l2-18 1-3 5-1c3-1 3-7 6-8h4c4 0 10-4 14-6l2-1 1-2a1388 1388 0 006-15c0-2-3-3-3-6-1-4 2-9 2-13 0-3 0-10 5-9l4-13c1-2 1-5-1-6h-4c-4-1-6-6-10-5-4 0-5 3-8 4s-6-1-7-3c-1-3 1-8 3-10l-28-6-3 9h-9c-2 3-5 6-9 8-3 1-6 2-8 1-3-2-5-6-9-6l-4-13c-4 0-9-1-13 1l-3 2c-4 2-9 0-13-1l-2 17c0 2 0 5-2 6-3 2-7-1-7-4-3-3-5-8-5-13-6-3-13-2-18 3 6 3 10 9 11 16-4 2-8 0-12-2-4-3-9-5-14-6-4-1-8-1-10 2-1 2 0 4 1 6-3 4-9 5-13 2l-4-2-6 3-11 7c-1 2 6 4 8 6l7-10c5 0 7 5 9 9 1 4 2 9 5 12h5c2-1 2-14 2-15 0 0 8-6 9-5l1 1c4 4 4 11-1 15 1 1 4 2 6 1l10-2c4-1 6-9 10-5 2 4 6 10 3 13l-3 3c-4 2-5 7-4 11 2 3 6 6 10 6h4l3 2c5 4 9 11 7 16 3 3 5 7 9 9 3 3 9 3 11-2-4-2-7-6-8-10l11-2 3-9-7-7h-7c-4-1-6-4-10-6-3-1-8 1-9-1l-1-4 2-10c0-3 0-6 2-8 4-9 20-18 30-16 1 4 1 8-2 10l-4 1-6 5c-2 2-3 7 0 8-2 0-3 3-1 5l6 1 5-4 8-2c2 1 5 3 4 6" id="path24" fill="#3bb54a"/></g></g><g id="Book"><path class="st0" d="M695 483l-5 16a383 383 0 00-314 40l-16-11a385 385 0 00-298-29l-5-16-7 20 4 17s158-47 276 8c5 2 1 10 12 23 8 8 20 12 34 12 10 0 20-1 29-7 7-5 11-12 14-20 0-2 0-8 3-8 144-55 274-7 274-7l6-18-7-20z" id="path38" fill="#337fbe"/><path id="Middle_Book" d="M709 435c-186-11-273 47-333 84-49-32-112-82-280-84-17-1-34 0-53 2l19 62s155-53 290 30l-2 3c-2 5 1 11 6 14 8 5 18 5 27 4 12-1 23-7 21-17l-3-4c135-82 289-30 289-30l19-62v-2z" fill="#d2d3d4"/><path id="Top_Book" d="M665 410c-187-10-289 98-289 98S276 400 89 410l-46 27s38-2 56-2c165 3 230 54 277 84 42-25 118-82 281-85l52 2-44-26z" fill="#e6e6e6"/></g></g></g><g id="g1713" transform="matrix(.50568 0 0 .50568 794.202 126.26)"><path d="M-894.274 605.583c-19.313-74.578-34.194-113.72-60.925-160.244-27.818-48.419-57.546-83.225-118.916-139.229-34.252-31.256-42.432-39.618-56.101-57.347-54.314-70.445-64.326-169.55-26.3-260.314 38.12-90.986 115.67-148.542 215.696-160.086 19.267-2.224 67.217-.72 83.167 2.607 44.565 9.297 82.993 27.264 117.166 54.781 22.127 17.817 42.992 41.22 56.907 63.828 7.155 11.624 20.897 40.24 25.395 52.881 4.93 13.854 10.705 37.61 13.221 54.385 2.894 19.299 2.901 59.173.013 77.854-7.194 46.536-24.567 86.598-55.33 127.589-21.584 28.76-40.09 40.541-56.573 36.013-11.33-3.113-19.854-15.909-17.82-26.752.933-4.976 9.306-16.57 24.782-34.316 13.813-15.84 19.72-24.781 30.73-46.519 11.194-22.1 19.935-46.518 23.043-64.365 2.58-14.819 2.63-46.076.097-61.692-8.886-54.786-45.534-113.958-90.073-145.433-38.93-27.511-92.787-42.909-138.239-39.522-55.122 4.107-104.257 27.452-143.424 68.144-15.45 16.053-25.22 30.194-35.14 50.865-22.146 46.15-27.98 96.63-16.926 146.455 8.51 38.353 23.8 66.513 50.827 93.608 13.56 13.595 24.333 22.422 70.196 57.52 40.204 30.766 68.13 64.354 96.66 116.257 5.398 9.819 10.565 17.854 11.482 17.856 3.6.008 10.098-26.503 12.237-49.917 4.243-46.452-9.691-89.722-40.91-127.036-9.029-10.791-23.594-24.45-52.997-49.694-33.489-28.754-47.085-45.028-55.2-66.073-12.009-31.137-10.462-70.423 3.893-98.894 15.905-31.545 44.875-54.854 79.007-63.568 24.034-6.137 48.888-6.425 70.62-.82 10.29 2.654 30.527 12.422 40.49 19.543 26.427 18.888 44.286 52.048 47.726 88.617 2.177 23.129-1.269 44.07-10.502 63.835-12.017 25.725-25.507 35.06-43.459 30.075-6.095-1.692-14.245-8.817-17.192-15.028-3.506-7.387-2.729-13.126 4.392-32.435 7.653-20.754 9.032-27.935 7.828-40.764-2.192-23.349-16.466-44.873-36.479-55.006-13.171-6.67-34.131-7.82-48.708-2.676-28.253 9.972-50.054 41.41-47.712 68.804 1.557 18.216 9.216 29.218 47.363 68.04 41.312 42.042 53.189 57.753 70.725 93.555 15.25 31.136 25.84 66.283 31.54 104.677 1.782 12.006 2.337 24.014 2.359 51.03.024 31.396-.304 37.075-2.958 51.03-5.15 27.084-17.442 66.659-25.809 83.086-3.126 6.14-35.267 57.37-37.25 59.375-.645.652-1.776-1.327-2.619-4.58z" id="path1715" fill="#fff" fill-opacity="1" stroke="none" stroke-width="1.308"/></g></svg>